<?xml version="1.0" encoding="utf-8"?>
<!-- Generator: Adobe Illustrator 26.0.1, SVG Export Plug-In . SVG Version: 6.00 Build 0)  -->
<svg version="1.1" id="Слой_1" xmlns="http://www.w3.org/2000/svg" xmlns:xlink="http://www.w3.org/1999/xlink" x="0px" y="0px"
	 viewBox="0 0 384 512" style="enable-background:new 0 0 384 512;" xml:space="preserve">
<path d="M64,0c-8.8,0-17.2,1.8-24.9,5S24.6,13,18.8,18.8S8.3,31.5,5,39.1S0,55.2,0,64v96v96v96v96c0,8.8,1.8,17.2,5,24.9
	s7.9,14.6,13.7,20.3s12.7,10.5,20.3,13.7s16.1,5,24.9,5h64h64h64h64c8.8,0,17.2-1.8,24.9-5s14.6-7.9,20.3-13.7
	c5.8-5.8,10.5-12.7,13.7-20.3s5-16.1,5-24.9v-72v-72v-72v-72h-32h-32h-32h-32c-4.4,0-8.6-0.9-12.5-2.5c-3.8-1.6-7.3-4-10.2-6.9
	s-5.2-6.3-6.9-10.2c-1.6-3.8-2.5-8-2.5-12.5V96V64V32V0h-40h-40h-40H64z M256,0v32v32v32v32h32h32h32h32l-32-32l-32-32l-32-32L256,0
	z M159.5,215c5.6,3.4,10.7,7.4,15.3,12.1c4.6,4.6,8.5,9.8,11.8,15.5c3.3,5.7,5.8,11.8,7.6,18.2c1.8,6.5,2.7,13.3,2.7,20.3
	s-0.9,13.8-2.7,20.3c-1.8,6.5-4.3,12.6-7.6,18.2c-3.3,5.7-7.2,10.9-11.8,15.5c-4.6,4.6-9.7,8.7-15.3,12.1c-1.1,0.7-2.4,1.1-3.6,1.3
	c-1.2,0.2-2.5,0.1-3.7-0.2s-2.3-0.8-3.4-1.6s-1.9-1.7-2.6-2.8c-0.7-1.1-1.1-2.4-1.3-3.6c-0.2-1.2-0.1-2.5,0.2-3.7
	c0.3-1.2,0.8-2.3,1.6-3.4c0.7-1,1.7-1.9,2.8-2.6c4.2-2.5,8.1-5.6,11.5-9.1c3.4-3.5,6.4-7.4,8.9-11.6c2.5-4.3,4.4-8.8,5.7-13.7
	c1.3-4.8,2-9.9,2-15.2s-0.7-10.4-2-15.2s-3.2-9.4-5.7-13.7c-2.5-4.3-5.4-8.2-8.8-11.6c-3.4-3.5-7.3-6.5-11.5-9.1
	c-1.1-0.7-2.1-1.6-2.8-2.6c-0.7-1-1.3-2.2-1.6-3.4c-0.3-1.2-0.4-2.5-0.2-3.7c0.2-1.2,0.6-2.5,1.3-3.6c0.7-1.1,1.6-2.1,2.6-2.8
	c1-0.7,2.2-1.3,3.4-1.6c1.2-0.3,2.5-0.4,3.7-0.2S158.4,214.3,159.5,215L159.5,215L159.5,215L159.5,215L159.5,215z M104.1,233.6
	c0.9,0.4,1.7,0.9,2.5,1.5c0.7,0.6,1.4,1.3,1.9,2.1c0.5,0.8,0.9,1.6,1.2,2.5c0.3,0.9,0.4,1.9,0.4,2.8v19.3v19.3v19.3v19.3
	c0,1-0.1,1.9-0.4,2.8c-0.3,0.9-0.7,1.8-1.2,2.5c-0.5,0.8-1.2,1.5-1.9,2.1s-1.6,1.1-2.5,1.5c-0.9,0.4-1.8,0.6-2.8,0.7s-1.9,0-2.8-0.1
	c-0.9-0.2-1.8-0.5-2.6-0.9s-1.6-1-2.3-1.7l-5.3-5.3l-5.3-5.3l-5.3-5.3l-5.3-5.3h-5h-5h-5h-5c-1.3,0-2.6-0.3-3.7-0.8
	c-1.2-0.5-2.2-1.2-3.1-2.1c-0.9-0.9-1.6-1.9-2.1-3.1c-0.5-1.2-0.8-2.4-0.8-3.7v-7.2v-7.2v-7.2v-7.2c0-1.3,0.3-2.6,0.8-3.7
	c0.5-1.2,1.2-2.2,2.1-3.1c0.9-0.9,1.9-1.6,3.1-2.1c1.2-0.5,2.4-0.8,3.7-0.8h5h5h5h5l5.3-5.3l5.3-5.3l5.3-5.3l5.3-5.3
	c0.7-0.7,1.5-1.3,2.3-1.7c0.8-0.4,1.7-0.8,2.6-0.9s1.9-0.2,2.8-0.1S103.2,233.3,104.1,233.6L104.1,233.6L104.1,233.6L104.1,233.6
	L104.1,233.6z M134.8,254.6c1-0.9,2.1-1.5,3.3-1.9c1.2-0.4,2.4-0.6,3.7-0.5s2.5,0.4,3.6,0.9c1.1,0.5,2.2,1.3,3.1,2.3
	c1.5,1.7,2.9,3.5,4.1,5.5c1.2,2,2.2,4,3.1,6.2c0.8,2.2,1.5,4.4,2,6.8c0.4,2.3,0.7,4.8,0.7,7.2s-0.2,4.9-0.7,7.2
	c-0.4,2.3-1.1,4.6-2,6.8c-0.8,2.2-1.9,4.3-3.1,6.2s-2.6,3.8-4.1,5.5c-0.9,1-1.9,1.8-3.1,2.3c-1.1,0.5-2.4,0.8-3.6,0.9
	c-1.2,0.1-2.5-0.1-3.7-0.5c-1.2-0.4-2.3-1-3.3-1.9c-1-0.9-1.8-1.9-2.3-3c-0.5-1.1-0.8-2.4-0.9-3.6s0.1-2.5,0.5-3.7s1-2.3,1.9-3.3
	c0.8-0.9,1.5-1.8,2.1-2.8s1.1-2,1.5-3.1s0.7-2.2,1-3.4c0.2-1.2,0.3-2.4,0.3-3.6s-0.1-2.4-0.3-3.6c-0.2-1.2-0.5-2.3-1-3.4
	c-0.4-1.1-0.9-2.1-1.5-3.1s-1.3-1.9-2-2.7c-0.9-1-1.5-2.1-1.9-3.3s-0.6-2.4-0.5-3.7c0.1-1.2,0.4-2.5,0.9-3.6
	C133,256.6,133.8,255.6,134.8,254.6L134.8,254.6L134.8,254.6L134.8,254.6L134.8,254.6z M186.8,358.9c0-11.1,8.9-20,20-20h60
	c11.1,0,20,8.9,20,20v60c0,11.1-8.9,20-20,20h-60c-11.1,0-20-8.9-20-20V358.9z M334.9,427.6l-28.1-18.7v-40l28.1-18.7
	c1.2-0.8,2.8-1.3,4.2-1.3c4.2,0,7.7,3.4,7.7,7.7v64.6c0,4.2-3.4,7.7-7.7,7.7C337.6,428.9,336.1,428.5,334.9,427.6z"/>
</svg>
